<svg width="58" height="68" viewBox="0 0 58 68" fill="none" xmlns="http://www.w3.org/2000/svg">
<path d="M0.0287886 27.4985C0.0287886 27.3461 0.0381963 27.1853 0.0381963 27.0413C0.0476093 26.94 0.0475989 26.8485 0.0570119 26.7472C0.0758377 26.3327 0.113491 25.9181 0.151927 25.5044V25.4122C0.180166 25.2278 0.199004 25.035 0.21783 24.8506C0.227243 24.7858 0.227232 24.731 0.236645 24.6662C0.275081 24.3904 0.315097 24.1145 0.359808 23.8379C0.35917 23.833 0.359687 23.828 0.361316 23.8232C0.362945 23.8184 0.365639 23.8141 0.369216 23.8105C0.435891 23.3533 0.521394 22.8961 0.616307 22.4481C0.619884 22.4445 0.622578 22.4402 0.624207 22.4354C0.625836 22.4306 0.626353 22.4256 0.625715 22.4206C0.663367 22.218 0.710436 22.0244 0.758285 21.8225C0.890849 21.2792 1.03282 20.7359 1.19362 20.2025C1.30736 19.8337 1.42112 19.4657 1.55368 19.0977C1.63919 19.3461 1.72468 19.5945 1.81959 19.8337C1.88548 20.009 1.95215 20.1835 2.01804 20.3496V20.3587C2.02821 20.3949 2.04438 20.4291 2.06589 20.4601C2.08472 20.4967 2.09413 20.5363 2.11295 20.5706C2.20787 20.819 2.31222 21.0582 2.42674 21.2975C2.46521 21.3981 2.50944 21.4966 2.55928 21.5924V21.6015C2.57131 21.6308 2.58712 21.6584 2.60635 21.6838L2.61578 21.693C2.61839 21.7296 2.63171 21.7647 2.6542 21.7943C2.75879 22.0244 2.87253 22.2545 2.99542 22.4847C3.01986 22.5418 3.04816 22.5973 3.08013 22.6508C3.10287 22.6985 3.12909 22.7446 3.15858 22.7887C3.21584 22.9175 3.28173 23.0371 3.34841 23.1567C3.43313 23.3045 3.51836 23.4519 3.60412 23.5987C3.6412 23.6743 3.68232 23.7481 3.72729 23.8196C3.71788 23.8288 3.72729 23.8288 3.72729 23.8288C3.76494 23.905 3.81279 23.9759 3.85985 24.0498C4.01674 24.3446 4.20107 24.6296 4.39012 24.9154C4.60818 25.2649 4.83565 25.6055 5.07255 25.9372C5.11709 25.9898 5.15823 26.045 5.19571 26.1025C5.41377 26.4073 5.64126 26.7121 5.86874 27.0047C6.06798 27.2623 6.27582 27.5107 6.48448 27.7591C6.5888 27.8886 6.69314 28.0174 6.80688 28.1401C6.87277 28.2224 6.94887 28.3054 7.02496 28.3885C7.19518 28.5912 7.38499 28.7931 7.57403 28.9981C7.60642 29.0369 7.64127 29.0739 7.67835 29.1085C7.9443 29.3943 8.21884 29.6701 8.5028 29.9467L28.9995 49.8664L49.5048 29.9467C49.9127 29.5513 50.3009 29.1459 50.6814 28.7413C50.8994 28.502 51.1175 28.2536 51.3262 28.0052C51.4046 27.9221 51.4681 27.8391 51.5442 27.756C51.8 27.4512 52.0463 27.1396 52.2831 26.8264C52.3498 26.7342 52.4157 26.6519 52.4824 26.5597C52.6055 26.4035 52.7177 26.2374 52.8424 26.0721C52.9373 25.9433 53.0221 25.8137 53.1076 25.685C53.1549 25.6259 53.1991 25.5647 53.2401 25.5013C53.4864 25.1333 53.7327 24.7554 53.9602 24.3782C54.074 24.1938 54.1783 24.0193 54.2826 23.8349C54.2989 23.7979 54.3211 23.7637 54.3485 23.7335C54.4528 23.5499 54.5477 23.3564 54.6521 23.172C54.7846 22.9327 54.9078 22.6934 55.0309 22.4542C55.0556 22.4138 55.0749 22.3705 55.0882 22.3254C55.1233 22.2625 55.155 22.1979 55.1831 22.1319C55.2058 22.097 55.2247 22.06 55.2396 22.0214C55.2772 21.9452 55.318 21.8835 55.3439 21.8194C55.4294 21.6442 55.5008 21.4788 55.5714 21.3036C55.6472 21.1573 55.7137 21.0066 55.7706 20.8525C55.7989 20.7976 55.8177 20.7512 55.8491 20.6963C55.8491 20.6871 55.8585 20.678 55.8585 20.6689C56.0766 20.1439 56.2758 19.628 56.446 19.1038C56.5786 19.4718 56.6923 19.8398 56.8061 20.2086C56.8845 20.457 56.9582 20.7054 57.0241 20.9538C57.09 21.2022 57.1661 21.4689 57.2234 21.7364C57.2987 22.0305 57.3648 22.3249 57.4218 22.6195C57.4885 22.9144 57.5458 23.2093 57.5928 23.5126C57.6399 23.8158 57.6972 24.1115 57.7348 24.4147C57.7725 24.6632 57.8015 24.9215 57.8297 25.1699C57.8391 25.2621 57.8485 25.3444 57.858 25.4366C57.8862 25.6941 57.9058 25.9616 57.9246 26.2191V26.2283C57.9529 26.5041 57.9623 26.7716 57.9717 27.0474C57.9905 27.4284 57.9999 27.7934 57.9999 28.1705C57.9999 28.7039 57.9811 29.2472 57.9435 29.7814C57.5585 36.6873 54.5539 43.2098 49.5095 48.0902L29.0324 67.9726L29.0042 68L8.50751 48.0902C7.00305 46.6348 5.67143 45.0199 4.53758 43.276C4.53758 43.2661 4.52816 43.2577 4.52816 43.2478C1.87602 39.2092 0.341902 34.5738 0.0742714 29.7905C0.0185782 29.0171 -0.000234657 28.2627 0.0287886 27.4985Z" fill="url(#paint0_linear_43_34)"/>
<path d="M8.9082 7.87395C13.6511 3.43597 19.8095 0.70101 26.3676 0.120314C32.9259 -0.460382 39.4919 1.14789 44.9825 4.67977C45.0201 4.69806 45.0492 4.71635 45.068 4.72626C46.505 5.65597 47.8528 6.70946 49.0952 7.87395L48.3108 8.63593L28.9994 27.386L9.58358 8.52773V8.51859L9.51769 8.4539L8.9082 7.87395Z" fill="url(#paint1_linear_43_34)"/>
<path d="M1.5542 19.0947C2.51276 16.3251 3.91355 13.7191 5.7053 11.372C5.87551 11.1511 6.04651 10.9301 6.23555 10.7091C6.40655 10.4973 6.58618 10.2854 6.7666 10.0736C7.13605 9.65986 7.50552 9.24534 7.90318 8.83997C8.09301 8.63804 8.29539 8.4445 8.50012 8.24182C8.62367 8.10999 8.75686 7.98693 8.89868 7.87378H8.90802L9.51437 8.45365L9.58026 8.51841V8.52756L28.9968 27.3881L48.3082 8.63805L49.0926 7.87607C49.235 7.99166 49.3709 8.11456 49.4997 8.2441C52.6477 11.2897 55.0226 15.0055 56.4363 19.097C56.2661 19.6212 56.0668 20.1371 55.8488 20.6621C55.8488 20.6712 55.8393 20.6804 55.8393 20.6895C55.8111 20.7444 55.7923 20.7909 55.7609 20.8457C55.704 20.9999 55.6375 21.1505 55.5617 21.2968C55.41 21.6372 55.249 21.9778 55.0785 22.3186C54.9459 22.6036 54.7937 22.8894 54.6423 23.1652C54.4243 23.5706 54.1968 23.9752 53.9505 24.3714C53.723 24.7486 53.4798 25.1265 53.2304 25.4946C53.2116 25.5128 53.2021 25.5403 53.1833 25.5586C52.9558 25.8992 52.7128 26.2398 52.4539 26.5804C52.3966 26.6634 52.3401 26.7373 52.2734 26.8196C52.0177 27.1511 51.7526 27.4826 51.489 27.8049L51.4702 27.8232C51.2145 28.128 50.9491 28.4328 50.674 28.7375C50.2951 29.1422 49.9068 29.5475 49.4974 29.943L28.9921 49.8627L8.49542 29.943C6.07036 27.5905 4.09413 24.8388 2.65863 21.8157C2.63012 21.7771 2.61059 21.7329 2.60138 21.6862C2.58215 21.6608 2.56633 21.6332 2.55432 21.6039V21.5947C2.50447 21.499 2.46021 21.4005 2.42174 21.2999C2.308 21.0607 2.20368 20.8213 2.10799 20.5729C2.07104 20.5047 2.03932 20.4339 2.01307 20.3611V20.352C1.94718 20.1858 1.88051 20.0114 1.81462 19.8361C1.7252 19.5915 1.6397 19.3431 1.5542 19.0947Z" fill="url(#paint2_linear_43_34)"/>
<g style="mix-blend-mode:multiply" opacity="0.06">
<g style="mix-blend-mode:multiply" opacity="0.06">
<path d="M28.9965 27.3873L49.0978 7.86841C49.2366 7.98423 49.3755 8.11918 49.5041 8.24414C50.5124 9.21772 51.4435 10.2638 52.2896 11.3736L28.9965 27.3873Z" fill="black"/>
</g>
</g>
<g style="mix-blend-mode:multiply" opacity="0.06">
<g style="mix-blend-mode:multiply" opacity="0.06">
<path d="M28.9965 49.8573L49.5018 29.9376C49.9096 29.5421 50.2979 29.1368 50.6784 28.7321C50.8964 28.4837 51.1145 28.2445 51.3232 27.9961C51.4016 27.913 51.4651 27.83 51.5412 27.7469C51.7969 27.4421 52.0433 27.1305 52.2801 26.8173C52.3468 26.7251 52.4127 26.6428 52.4794 26.5506C52.6025 26.3944 52.7257 26.2283 52.8394 26.0629C52.9343 25.9342 53.0191 25.8046 53.1046 25.6758C53.1519 25.6168 53.1962 25.5555 53.2371 25.4922C53.4834 25.1242 53.7297 24.7462 53.9572 24.3691C54.0709 24.1938 54.1753 24.0102 54.2796 23.8258C54.2959 23.7888 54.3182 23.7546 54.3455 23.7244C54.4498 23.5408 54.5541 23.3472 54.6491 23.1628C54.7816 22.9236 54.9048 22.6843 55.0279 22.4451C55.0526 22.4047 55.0719 22.3614 55.0852 22.3163C55.1203 22.2534 55.152 22.1888 55.1801 22.1227C55.2029 22.0879 55.2218 22.0509 55.2366 22.0123C55.3503 21.773 55.4641 21.5337 55.5684 21.2945C55.6442 21.1482 55.7108 20.9975 55.7676 20.8434C56.0139 20.2635 56.2383 19.6836 56.4399 19.0908C56.5724 19.4589 56.6862 19.8269 56.7999 20.1957C56.8784 20.4441 56.9521 20.6925 57.018 20.9409C57.0839 21.1893 57.16 21.456 57.2172 21.7235C57.2925 22.0176 57.3587 22.3119 57.4157 22.6066C57.4824 22.9015 57.5396 23.1964 57.5867 23.4996C57.6337 23.8029 57.691 24.0986 57.7287 24.4018C57.7663 24.6502 57.7953 24.9085 57.8236 25.1569C57.833 25.2491 57.8424 25.3314 57.8518 25.4236C57.8801 25.6812 57.8997 25.9486 57.9185 26.2062V26.2153C57.9467 26.4912 57.9561 26.7586 57.9656 27.0345C57.9844 27.4154 57.9938 27.7804 57.9938 28.1576C57.9938 28.691 57.975 29.2343 57.9373 29.7684L57.6235 29.9894L33.1091 47.0037L28.9965 49.8573Z" fill="black"/>
</g>
</g>
<g style="mix-blend-mode:multiply" opacity="0.06">
<g style="mix-blend-mode:multiply" opacity="0.06">
<path d="M5.70544 11.3732C5.87566 11.1523 6.04666 10.9313 6.2357 10.7103C6.4067 10.4985 6.58633 10.2867 6.76674 10.0748C7.1362 9.66108 7.50567 9.24656 7.90333 8.84119C8.09316 8.63927 8.29554 8.43658 8.49086 8.24304H8.50027C8.62382 8.11114 8.75701 7.98815 8.89883 7.875H8.90816L9.57099 8.52878C9.57099 8.51963 9.5804 8.52878 9.5804 8.52878C9.59382 8.54905 9.6099 8.56749 9.62825 8.58364L28.9969 27.3893L25.0835 24.7018L6.47259 11.9005L5.70544 11.3732Z" fill="black"/>
</g>
</g>
<g style="mix-blend-mode:multiply" opacity="0.06">
<g style="mix-blend-mode:multiply" opacity="0.06">
<path d="M0.763314 21.8126C0.891956 21.2708 1.03157 20.7306 1.19394 20.1957C1.30768 19.8269 1.42143 19.4589 1.554 19.0908C1.6395 19.3392 1.72499 19.5876 1.81991 19.8269C1.8858 20.0021 1.95248 20.1766 2.02778 20.3428C2.04739 20.419 2.08503 20.4898 2.11327 20.5637C2.20818 20.8121 2.31253 21.0514 2.42705 21.2907C2.46552 21.3912 2.50976 21.4898 2.5596 21.5855C2.5695 21.6185 2.58545 21.6495 2.60666 21.677C2.61587 21.7237 2.6354 21.7679 2.66393 21.8065C4.10159 24.8261 6.07403 27.577 8.49134 29.9338H8.50075L28.9974 49.8535L24.9318 47.0273L0.702128 30.2195L0.0675227 29.7776L0.058115 29.7684C0.0196788 29.2351 0.000854492 28.6918 0.000854492 28.1576C0.000854492 27.9366 0.0204749 27.7157 0.0259658 27.4947C0.0259658 27.3423 0.0369501 27.1899 0.0432254 27.0322C0.0651889 26.4988 0.10127 25.973 0.15461 25.4434C0.180496 25.1813 0.207944 24.92 0.241674 24.6586C0.277757 24.3828 0.313064 24.1069 0.357775 23.8319C0.436216 23.3587 0.522488 22.8878 0.622892 22.4176C0.666035 22.2187 0.714681 22.0176 0.763314 21.8126Z" fill="black"/>
</g>
</g>
<g style="mix-blend-mode:multiply" opacity="0.14">
<g style="mix-blend-mode:multiply" opacity="0.14">
<path d="M9.50952 8.45728L28.9966 27.3871L48.305 8.64244C46.828 10.3371 45.2818 11.9548 43.7655 13.6105C42.2289 15.2381 40.6828 16.8657 39.1171 18.4636C37.5609 20.0813 35.9646 21.6601 34.3887 23.2488L29.5912 27.967L28.9966 28.5545L28.4021 27.967L23.5646 23.2008C21.9691 21.593 20.3634 20.0043 18.7875 18.3775C17.2117 16.7507 15.6452 15.1223 14.0889 13.4764C12.5726 11.8085 11.0062 10.171 9.50952 8.45728Z" fill="black"/>
</g>
</g>
<g style="mix-blend-mode:multiply" opacity="0.14">
<g style="mix-blend-mode:multiply" opacity="0.14">
<path d="M2.56079 21.6007C4.00503 24.7058 6.01661 27.5308 8.49796 29.939L28.9962 49.8602L49.5038 29.939C52.2305 27.2966 54.3844 24.1502 55.838 20.6855C54.7073 23.808 52.9935 26.7011 50.7825 29.2197C50.2279 29.8552 49.6232 30.4518 49.0482 31.0485L47.3138 32.8391L43.7949 36.3922C39.1167 41.1165 34.3584 45.7897 29.5908 50.4401L28.9962 51.0177L28.4016 50.4401L21.4533 43.6234C19.1636 41.3314 16.8442 39.0592 14.5741 36.7389L11.1516 33.2795L9.45651 31.5369C8.90115 30.9494 8.31684 30.3718 7.76144 29.7843C5.53807 27.3805 3.77663 24.6087 2.56079 21.6007Z" fill="black"/>
</g>
</g>
<g style="mix-blend-mode:screen" opacity="0.3">
<g style="mix-blend-mode:screen" opacity="0.3">
<path d="M9.50952 8.45728C11.2737 9.91113 12.961 11.429 14.6734 12.9057C16.3682 14.4175 18.05 15.9389 19.7186 17.47C21.3941 19.0008 23.0297 20.5606 24.6848 22.1104L28.9991 26.2411L33.2607 22.1493C34.908 20.6185 36.5223 19.0678 38.1876 17.566C39.8427 16.0352 41.508 14.5424 43.1929 13.0406C44.8974 11.5768 46.5659 10.075 48.3073 8.64015L28.9991 27.3848L9.50952 8.45728Z" fill="white"/>
</g>
</g>
<g style="mix-blend-mode:screen" opacity="0.3">
<g style="mix-blend-mode:screen" opacity="0.3">
<path d="M2.56079 21.6007C4.05006 24.4319 6.00546 27.0078 8.34979 29.2266C10.7281 31.4218 13.1346 33.6171 15.4957 35.8413C17.8748 38.0556 20.2139 40.2989 22.5734 42.533L28.9962 48.7142C33.585 44.2658 38.2073 39.856 42.863 35.4847L46.5207 32.0665C47.7397 30.9403 49.0081 29.8232 50.1682 28.6772C52.5069 26.3416 54.4237 23.6399 55.838 20.6855C54.3844 24.1502 52.2305 27.2966 49.5038 29.939L28.9962 49.8602L8.49796 29.939C6.01661 27.5308 4.00503 24.7058 2.56079 21.6007Z" fill="white"/>
</g>
</g>
<g style="mix-blend-mode:screen" opacity="0.5">
<g style="mix-blend-mode:screen" opacity="0.5">
<path d="M29.0247 67.9633C29.271 67.6684 31.3559 65.2384 34.5586 61.8514C36.2545 60.0288 38.2634 57.9486 40.4417 55.7297C41.5399 54.6347 42.6491 53.4841 43.8147 52.3427C44.9804 51.2012 46.168 50.0324 47.3399 48.8726C47.9274 48.3019 48.562 47.7213 49.1119 47.1696C49.7182 46.5806 50.2304 46.0099 50.7419 45.417C51.7545 44.2488 52.6671 43.0021 53.4708 41.6894C54.9098 39.3518 56.0129 36.834 56.7497 34.206C57.0909 33.0463 57.2893 31.9506 57.4791 30.9844C57.5364 30.6339 57.5834 30.3032 57.6211 29.9938C57.6969 29.4229 57.754 28.9072 57.7922 28.447C57.8486 27.7566 57.858 27.1768 57.8863 26.7996C57.9059 26.4681 57.9152 26.2662 57.9152 26.2197C57.9435 26.4956 57.9529 26.763 57.9623 27.0389C57.9811 27.4198 57.9906 27.7848 57.9906 28.162C57.9906 28.6954 57.9718 29.2387 57.9341 29.7728C57.5492 36.6787 54.5446 43.2013 49.5001 48.0817L29.0247 67.9633Z" fill="white"/>
</g>
</g>
<g style="mix-blend-mode:multiply" opacity="0.2">
<g style="mix-blend-mode:multiply" opacity="0.2">
<path d="M0.763249 21.8125C0.891891 21.2708 1.0315 20.7305 1.19387 20.1956C1.30761 19.8268 1.42137 19.4588 1.55393 19.0907C2.5125 16.3211 3.91329 13.715 5.70503 11.3681C5.87525 11.1471 6.04624 10.9261 6.23529 10.7051C6.40629 10.4933 6.58592 10.2815 6.76634 10.0697C7.1358 9.6559 7.50525 9.24139 7.90294 8.83601C8.09277 8.63409 8.29515 8.4314 8.49047 8.23786H8.49988C8.62335 8.10596 8.75654 7.98298 8.89836 7.86982H8.90777C13.6506 3.43182 19.809 0.696861 26.3672 0.116165C32.9253 -0.464531 39.4914 1.14371 44.9821 4.6756C44.8589 4.6116 44.6597 4.5011 44.4134 4.36318C43.9019 4.08659 43.1442 3.71857 42.1676 3.26747C39.4742 2.07333 36.6126 1.27591 33.6771 0.901511C29.5725 0.366952 25.3978 0.67852 21.4254 1.8159C19.2063 2.45851 17.0723 3.35128 15.067 4.47597C13.0814 5.60408 11.2427 6.95997 9.59021 8.51446C9.59021 8.51446 9.58001 8.50531 9.58001 8.51446V8.5236C9.58001 8.5236 9.5706 8.51446 9.5706 8.5236C9.50471 8.57846 9.44745 8.64323 9.38156 8.69809C8.32598 9.68608 7.35309 10.7542 6.47219 11.8923C5.92589 12.5971 5.41667 13.3283 4.9465 14.083C3.73548 16.0031 2.76831 18.0587 2.06614 20.2047C2.04924 20.2496 2.03639 20.2957 2.02772 20.3427H2.01829V20.3518C1.39383 22.3179 0.981126 24.3416 0.78678 26.3905C0.669625 27.6635 0.641053 28.9427 0.701273 30.2194C0.730296 30.8542 0.786772 31.4805 0.853447 32.0787C1.1611 34.9402 1.91162 37.7403 3.07962 40.3843C3.53458 41.3329 3.87579 42.0873 4.16053 42.5749C4.33075 42.8881 4.45389 43.1182 4.52056 43.2379C1.86842 39.1992 0.334323 34.5639 0.0666922 29.7805L0.0572605 29.7714C0.0188243 29.238 0 28.6947 0 28.1606C0 27.9396 0.0196204 27.7186 0.0251113 27.4977C0.0251113 27.3453 0.0360955 27.1929 0.0423708 27.0351C0.0643344 26.5017 0.100416 25.976 0.153756 25.4464C0.179641 25.1843 0.20709 24.9229 0.24082 24.6616C0.276903 24.3857 0.312209 24.1099 0.35692 23.8348C0.435362 23.3616 0.521633 22.8907 0.622037 22.4206C0.665964 22.2187 0.714616 22.0175 0.763249 21.8125Z" fill="black"/>
</g>
</g>
<defs>
<linearGradient id="paint0_linear_43_34" x1="-861.174" y1="669.254" x2="-861.174" y2="705.54" gradientUnits="userSpaceOnUse">
<stop stop-color="#3E6896"/>
<stop offset="0.247" stop-color="#355881"/>
<stop offset="0.75" stop-color="#1F324E"/>
<stop offset="1" stop-color="#131D32"/>
</linearGradient>
<linearGradient id="paint1_linear_43_34" x1="-861.056" y1="709.879" x2="-861.056" y2="735.207" gradientUnits="userSpaceOnUse">
<stop stop-color="#0098BA"/>
<stop offset="0.017" stop-color="#009BBC"/>
<stop offset="0.19" stop-color="#00BAD4"/>
<stop offset="0.371" stop-color="#00D3E7"/>
<stop offset="0.56" stop-color="#00E5F4"/>
<stop offset="0.762" stop-color="#00EFFC"/>
<stop offset="1" stop-color="#00F3FF"/>
</linearGradient>
<linearGradient id="paint2_linear_43_34" x1="-861.025" y1="687.884" x2="-861.025" y2="718.578" gradientUnits="userSpaceOnUse">
<stop stop-color="#5F2C82"/>
<stop offset="0.04" stop-color="#5D3283"/>
<stop offset="0.35" stop-color="#54618E"/>
<stop offset="0.625" stop-color="#4E8396"/>
<stop offset="0.851" stop-color="#4A989B"/>
<stop offset="1" stop-color="#49A09D"/>
</linearGradient>
</defs>
</svg>
